%TF.GenerationSoftware,KiCad,Pcbnew,9.0.0*%
%TF.CreationDate,2025-06-09T17:29:50+05:30*%
%TF.ProjectId,MP3Player,4d503350-6c61-4796-9572-2e6b69636164,rev?*%
%TF.SameCoordinates,Original*%
%TF.FileFunction,Soldermask,Bot*%
%TF.FilePolarity,Negative*%
%FSLAX46Y46*%
G04 Gerber Fmt 4.6, Leading zero omitted, Abs format (unit mm)*
G04 Created by KiCad (PCBNEW 9.0.0) date 2025-06-09 17:29:50*
%MOMM*%
%LPD*%
G01*
G04 APERTURE LIST*
%ADD10R,1.700000X1.700000*%
%ADD11O,1.700000X1.700000*%
%ADD12O,2.200000X1.600000*%
%ADD13C,2.100000*%
%ADD14R,2.000000X2.000000*%
%ADD15C,2.000000*%
%ADD16R,3.200000X2.000000*%
%ADD17C,1.700000*%
%ADD18C,4.000000*%
%ADD19C,2.200000*%
G04 APERTURE END LIST*
D10*
%TO.C,J1*%
X133000000Y-53860000D03*
D11*
X130460000Y-53860000D03*
X133000000Y-56400000D03*
X130460000Y-56400000D03*
X133000000Y-58940000D03*
X130460000Y-58940000D03*
X133000000Y-61480000D03*
X130460000Y-61480000D03*
X133000000Y-64020000D03*
X130460000Y-64020000D03*
X133000000Y-66560000D03*
X130460000Y-66560000D03*
X133000000Y-69100000D03*
X130460000Y-69100000D03*
X133000000Y-71640000D03*
X130460000Y-71640000D03*
X133000000Y-74180000D03*
X130460000Y-74180000D03*
X133000000Y-76720000D03*
X130460000Y-76720000D03*
X133000000Y-79260000D03*
X130460000Y-79260000D03*
X133000000Y-81800000D03*
X130460000Y-81800000D03*
X133000000Y-84340000D03*
X130460000Y-84340000D03*
X133000000Y-86880000D03*
X130460000Y-86880000D03*
X133000000Y-89420000D03*
X130460000Y-89420000D03*
X133000000Y-91960000D03*
X130460000Y-91960000D03*
X133000000Y-94500000D03*
X130460000Y-94500000D03*
X133000000Y-97040000D03*
X130460000Y-97040000D03*
X133000000Y-99580000D03*
X130460000Y-99580000D03*
X133000000Y-102120000D03*
X130460000Y-102120000D03*
%TD*%
D12*
%TO.C,SW1*%
X143500000Y-98500000D03*
D13*
X148000000Y-98500000D03*
D14*
X140500000Y-96000000D03*
D15*
X140500000Y-101000000D03*
X140500000Y-98500000D03*
D16*
X148000000Y-92900000D03*
X148000000Y-104100000D03*
D15*
X155000000Y-101000000D03*
X155000000Y-96000000D03*
%TD*%
D17*
%TO.C,SW2*%
X142840000Y-60500000D03*
D18*
X147920000Y-60500000D03*
D17*
X153000000Y-60500000D03*
D19*
X150460000Y-55420000D03*
X144110000Y-57960000D03*
%TD*%
D17*
%TO.C,SW3*%
X142840000Y-79460000D03*
D18*
X147920000Y-79460000D03*
D17*
X153000000Y-79460000D03*
D19*
X150460000Y-74380000D03*
X144110000Y-76920000D03*
%TD*%
M02*
