%TF.GenerationSoftware,KiCad,Pcbnew,9.0.0*%
%TF.CreationDate,2025-06-09T17:29:50+05:30*%
%TF.ProjectId,MP3Player,4d503350-6c61-4796-9572-2e6b69636164,rev?*%
%TF.SameCoordinates,Original*%
%TF.FileFunction,Legend,Top*%
%TF.FilePolarity,Positive*%
%FSLAX46Y46*%
G04 Gerber Fmt 4.6, Leading zero omitted, Abs format (unit mm)*
G04 Created by KiCad (PCBNEW 9.0.0) date 2025-06-09 17:29:50*
%MOMM*%
%LPD*%
G01*
G04 APERTURE LIST*
%ADD10C,0.150000*%
%ADD11C,0.120000*%
G04 APERTURE END LIST*
D10*
X131396666Y-50544819D02*
X131396666Y-51259104D01*
X131396666Y-51259104D02*
X131349047Y-51401961D01*
X131349047Y-51401961D02*
X131253809Y-51497200D01*
X131253809Y-51497200D02*
X131110952Y-51544819D01*
X131110952Y-51544819D02*
X131015714Y-51544819D01*
X132396666Y-51544819D02*
X131825238Y-51544819D01*
X132110952Y-51544819D02*
X132110952Y-50544819D01*
X132110952Y-50544819D02*
X132015714Y-50687676D01*
X132015714Y-50687676D02*
X131920476Y-50782914D01*
X131920476Y-50782914D02*
X131825238Y-50830533D01*
X141966667Y-91707200D02*
X142109524Y-91754819D01*
X142109524Y-91754819D02*
X142347619Y-91754819D01*
X142347619Y-91754819D02*
X142442857Y-91707200D01*
X142442857Y-91707200D02*
X142490476Y-91659580D01*
X142490476Y-91659580D02*
X142538095Y-91564342D01*
X142538095Y-91564342D02*
X142538095Y-91469104D01*
X142538095Y-91469104D02*
X142490476Y-91373866D01*
X142490476Y-91373866D02*
X142442857Y-91326247D01*
X142442857Y-91326247D02*
X142347619Y-91278628D01*
X142347619Y-91278628D02*
X142157143Y-91231009D01*
X142157143Y-91231009D02*
X142061905Y-91183390D01*
X142061905Y-91183390D02*
X142014286Y-91135771D01*
X142014286Y-91135771D02*
X141966667Y-91040533D01*
X141966667Y-91040533D02*
X141966667Y-90945295D01*
X141966667Y-90945295D02*
X142014286Y-90850057D01*
X142014286Y-90850057D02*
X142061905Y-90802438D01*
X142061905Y-90802438D02*
X142157143Y-90754819D01*
X142157143Y-90754819D02*
X142395238Y-90754819D01*
X142395238Y-90754819D02*
X142538095Y-90802438D01*
X142871429Y-90754819D02*
X143109524Y-91754819D01*
X143109524Y-91754819D02*
X143300000Y-91040533D01*
X143300000Y-91040533D02*
X143490476Y-91754819D01*
X143490476Y-91754819D02*
X143728572Y-90754819D01*
X144633333Y-91754819D02*
X144061905Y-91754819D01*
X144347619Y-91754819D02*
X144347619Y-90754819D01*
X144347619Y-90754819D02*
X144252381Y-90897676D01*
X144252381Y-90897676D02*
X144157143Y-90992914D01*
X144157143Y-90992914D02*
X144061905Y-91040533D01*
X146586667Y-53033200D02*
X146729524Y-53080819D01*
X146729524Y-53080819D02*
X146967619Y-53080819D01*
X146967619Y-53080819D02*
X147062857Y-53033200D01*
X147062857Y-53033200D02*
X147110476Y-52985580D01*
X147110476Y-52985580D02*
X147158095Y-52890342D01*
X147158095Y-52890342D02*
X147158095Y-52795104D01*
X147158095Y-52795104D02*
X147110476Y-52699866D01*
X147110476Y-52699866D02*
X147062857Y-52652247D01*
X147062857Y-52652247D02*
X146967619Y-52604628D01*
X146967619Y-52604628D02*
X146777143Y-52557009D01*
X146777143Y-52557009D02*
X146681905Y-52509390D01*
X146681905Y-52509390D02*
X146634286Y-52461771D01*
X146634286Y-52461771D02*
X146586667Y-52366533D01*
X146586667Y-52366533D02*
X146586667Y-52271295D01*
X146586667Y-52271295D02*
X146634286Y-52176057D01*
X146634286Y-52176057D02*
X146681905Y-52128438D01*
X146681905Y-52128438D02*
X146777143Y-52080819D01*
X146777143Y-52080819D02*
X147015238Y-52080819D01*
X147015238Y-52080819D02*
X147158095Y-52128438D01*
X147491429Y-52080819D02*
X147729524Y-53080819D01*
X147729524Y-53080819D02*
X147920000Y-52366533D01*
X147920000Y-52366533D02*
X148110476Y-53080819D01*
X148110476Y-53080819D02*
X148348572Y-52080819D01*
X148681905Y-52176057D02*
X148729524Y-52128438D01*
X148729524Y-52128438D02*
X148824762Y-52080819D01*
X148824762Y-52080819D02*
X149062857Y-52080819D01*
X149062857Y-52080819D02*
X149158095Y-52128438D01*
X149158095Y-52128438D02*
X149205714Y-52176057D01*
X149205714Y-52176057D02*
X149253333Y-52271295D01*
X149253333Y-52271295D02*
X149253333Y-52366533D01*
X149253333Y-52366533D02*
X149205714Y-52509390D01*
X149205714Y-52509390D02*
X148634286Y-53080819D01*
X148634286Y-53080819D02*
X149253333Y-53080819D01*
X146586667Y-71993200D02*
X146729524Y-72040819D01*
X146729524Y-72040819D02*
X146967619Y-72040819D01*
X146967619Y-72040819D02*
X147062857Y-71993200D01*
X147062857Y-71993200D02*
X147110476Y-71945580D01*
X147110476Y-71945580D02*
X147158095Y-71850342D01*
X147158095Y-71850342D02*
X147158095Y-71755104D01*
X147158095Y-71755104D02*
X147110476Y-71659866D01*
X147110476Y-71659866D02*
X147062857Y-71612247D01*
X147062857Y-71612247D02*
X146967619Y-71564628D01*
X146967619Y-71564628D02*
X146777143Y-71517009D01*
X146777143Y-71517009D02*
X146681905Y-71469390D01*
X146681905Y-71469390D02*
X146634286Y-71421771D01*
X146634286Y-71421771D02*
X146586667Y-71326533D01*
X146586667Y-71326533D02*
X146586667Y-71231295D01*
X146586667Y-71231295D02*
X146634286Y-71136057D01*
X146634286Y-71136057D02*
X146681905Y-71088438D01*
X146681905Y-71088438D02*
X146777143Y-71040819D01*
X146777143Y-71040819D02*
X147015238Y-71040819D01*
X147015238Y-71040819D02*
X147158095Y-71088438D01*
X147491429Y-71040819D02*
X147729524Y-72040819D01*
X147729524Y-72040819D02*
X147920000Y-71326533D01*
X147920000Y-71326533D02*
X148110476Y-72040819D01*
X148110476Y-72040819D02*
X148348572Y-71040819D01*
X148634286Y-71040819D02*
X149253333Y-71040819D01*
X149253333Y-71040819D02*
X148920000Y-71421771D01*
X148920000Y-71421771D02*
X149062857Y-71421771D01*
X149062857Y-71421771D02*
X149158095Y-71469390D01*
X149158095Y-71469390D02*
X149205714Y-71517009D01*
X149205714Y-71517009D02*
X149253333Y-71612247D01*
X149253333Y-71612247D02*
X149253333Y-71850342D01*
X149253333Y-71850342D02*
X149205714Y-71945580D01*
X149205714Y-71945580D02*
X149158095Y-71993200D01*
X149158095Y-71993200D02*
X149062857Y-72040819D01*
X149062857Y-72040819D02*
X148777143Y-72040819D01*
X148777143Y-72040819D02*
X148681905Y-71993200D01*
X148681905Y-71993200D02*
X148634286Y-71945580D01*
D11*
%TO.C,J1*%
X129130000Y-52530000D02*
X129130000Y-103450000D01*
X129130000Y-52530000D02*
X131730000Y-52530000D01*
X129130000Y-103450000D02*
X134330000Y-103450000D01*
X131730000Y-52530000D02*
X131730000Y-55130000D01*
X131730000Y-55130000D02*
X134330000Y-55130000D01*
X133000000Y-52530000D02*
X134330000Y-52530000D01*
X134330000Y-52530000D02*
X134330000Y-53860000D01*
X134330000Y-55130000D02*
X134330000Y-103450000D01*
%TO.C,SW1*%
X140200000Y-94400000D02*
X140800000Y-94400000D01*
X140500000Y-94700000D02*
X140200000Y-94400000D01*
X140800000Y-94400000D02*
X140500000Y-94700000D01*
X141900000Y-92600000D02*
X141900000Y-104400000D01*
X146000000Y-92600000D02*
X141900000Y-92600000D01*
X146000000Y-104400000D02*
X141900000Y-104400000D01*
X150000000Y-92600000D02*
X154100000Y-92600000D01*
X154100000Y-92600000D02*
X154100000Y-95000000D01*
X154100000Y-97200000D02*
X154100000Y-99800000D01*
X154100000Y-102000000D02*
X154100000Y-104400000D01*
X154100000Y-104400000D02*
X150000000Y-104400000D01*
X151000000Y-98500000D02*
G75*
G02*
X145000000Y-98500000I-3000000J0D01*
G01*
X145000000Y-98500000D02*
G75*
G02*
X151000000Y-98500000I3000000J0D01*
G01*
%TO.C,SW2*%
X140935000Y-53515000D02*
X154905000Y-53515000D01*
X140935000Y-67485000D02*
X140935000Y-53515000D01*
X154905000Y-53515000D02*
X154905000Y-67485000D01*
X154905000Y-67485000D02*
X140935000Y-67485000D01*
%TO.C,SW3*%
X140935000Y-72475000D02*
X154905000Y-72475000D01*
X140935000Y-86445000D02*
X140935000Y-72475000D01*
X154905000Y-72475000D02*
X154905000Y-86445000D01*
X154905000Y-86445000D02*
X140935000Y-86445000D01*
%TD*%
M02*
