M48
; DRILL file {KiCad 9.0.0} date 2025-06-10T12:24:33+0530
; FORMAT={-:-/ absolute / metric / decimal}
; #@! TF.CreationDate,2025-06-10T12:24:33+05:30
; #@! TF.GenerationSoftware,Kicad,Pcbnew,9.0.0
; #@! TF.FileFunction,Plated,1,2,PTH
FMAT,2
METRIC
; #@! TA.AperFunction,Plated,PTH,ComponentDrill
T1C1.000
; #@! TA.AperFunction,Plated,PTH,ComponentDrill
T2C1.500
%
G90
G05
T1
X140.96Y-87.4
X140.96Y-89.94
X140.96Y-92.48
X140.96Y-95.02
X140.96Y-97.56
X140.96Y-100.1
X140.96Y-102.64
X140.96Y-105.18
X140.96Y-107.72
X140.96Y-110.26
X140.96Y-112.8
X140.96Y-115.34
X140.96Y-117.88
X140.96Y-120.42
X140.96Y-122.96
X140.96Y-125.5
X140.96Y-128.04
X140.96Y-130.58
X140.96Y-133.12
X140.96Y-135.66
X143.5Y-87.4
X143.5Y-89.94
X143.5Y-92.48
X143.5Y-95.02
X143.5Y-97.56
X143.5Y-100.1
X143.5Y-102.64
X143.5Y-105.18
X143.5Y-107.72
X143.5Y-110.26
X143.5Y-112.8
X143.5Y-115.34
X143.5Y-117.88
X143.5Y-120.42
X143.5Y-122.96
X143.5Y-125.5
X143.5Y-128.04
X143.5Y-130.58
X143.5Y-133.12
X143.5Y-135.66
X151.58Y-129.745
X151.58Y-132.245
X151.58Y-134.745
X166.08Y-129.745
X166.08Y-134.745
T2
X155.11Y-90.135
X155.19Y-109.88
X161.46Y-87.595
X161.54Y-107.34
T2
G00X158.43Y-126.645
M15
G01X159.73Y-126.645
M16
G05
G00X158.43Y-137.845
M15
G01X159.73Y-137.845
M16
G05
M30
