M48
; DRILL file {KiCad 9.0.0} date 2025-06-09T21:48:33+0530
; FORMAT={-:-/ absolute / metric / decimal}
; #@! TF.CreationDate,2025-06-09T21:48:33+05:30
; #@! TF.GenerationSoftware,Kicad,Pcbnew,9.0.0
; #@! TF.FileFunction,Plated,1,2,PTH
FMAT,2
METRIC
; #@! TA.AperFunction,Plated,PTH,ComponentDrill
T1C1.000
; #@! TA.AperFunction,Plated,PTH,ComponentDrill
T2C1.500
%
G90
G05
T1
X130.46Y-53.86
X130.46Y-56.4
X130.46Y-58.94
X130.46Y-61.48
X130.46Y-64.02
X130.46Y-66.56
X130.46Y-69.1
X130.46Y-71.64
X130.46Y-74.18
X130.46Y-76.72
X130.46Y-79.26
X130.46Y-81.8
X130.46Y-84.34
X130.46Y-86.88
X130.46Y-89.42
X130.46Y-91.96
X130.46Y-94.5
X130.46Y-97.04
X130.46Y-99.58
X130.46Y-102.12
X133.0Y-53.86
X133.0Y-56.4
X133.0Y-58.94
X133.0Y-61.48
X133.0Y-64.02
X133.0Y-66.56
X133.0Y-69.1
X133.0Y-71.64
X133.0Y-74.18
X133.0Y-76.72
X133.0Y-79.26
X133.0Y-81.8
X133.0Y-84.34
X133.0Y-86.88
X133.0Y-89.42
X133.0Y-91.96
X133.0Y-94.5
X133.0Y-97.04
X133.0Y-99.58
X133.0Y-102.12
X140.5Y-94.0
X140.5Y-96.5
X140.5Y-99.0
X155.0Y-94.0
X155.0Y-99.0
T2
X144.11Y-57.96
X144.11Y-76.92
X150.46Y-55.42
X150.46Y-74.38
T2
G00X147.35Y-90.9
M15
G01X148.65Y-90.9
M16
G05
G00X147.35Y-102.1
M15
G01X148.65Y-102.1
M16
G05
M30
