%TF.GenerationSoftware,KiCad,Pcbnew,9.0.0*%
%TF.CreationDate,2025-06-10T12:24:27+05:30*%
%TF.ProjectId,MP3Player,4d503350-6c61-4796-9572-2e6b69636164,rev?*%
%TF.SameCoordinates,Original*%
%TF.FileFunction,Copper,L1,Top*%
%TF.FilePolarity,Positive*%
%FSLAX46Y46*%
G04 Gerber Fmt 4.6, Leading zero omitted, Abs format (unit mm)*
G04 Created by KiCad (PCBNEW 9.0.0) date 2025-06-10 12:24:27*
%MOMM*%
%LPD*%
G01*
G04 APERTURE LIST*
%TA.AperFunction,ComponentPad*%
%ADD10C,2.200000*%
%TD*%
%TA.AperFunction,ComponentPad*%
%ADD11C,2.000000*%
%TD*%
%TA.AperFunction,ComponentPad*%
%ADD12R,3.200000X2.000000*%
%TD*%
%TA.AperFunction,ComponentPad*%
%ADD13R,2.000000X2.000000*%
%TD*%
%TA.AperFunction,ComponentPad*%
%ADD14R,1.700000X1.700000*%
%TD*%
%TA.AperFunction,ComponentPad*%
%ADD15O,1.700000X1.700000*%
%TD*%
%TA.AperFunction,Conductor*%
%ADD16C,0.200000*%
%TD*%
G04 APERTURE END LIST*
D10*
%TO.P,SW3,2,2*%
%TO.N,Net-(J1-GND-Pad14)*%
X155190000Y-109880000D03*
%TO.P,SW3,1,1*%
%TO.N,Net-(J1-GPIO26{slash}SDIO_DAT2)*%
X161540000Y-107340000D03*
%TD*%
D11*
%TO.P,SW1,S2,S2*%
%TO.N,Net-(J1-GND-Pad14)*%
X166080000Y-129745000D03*
%TO.P,SW1,S1,S1*%
%TO.N,Net-(J1-GPCLK1{slash}GPIO05)*%
X166080000Y-134745000D03*
D12*
%TO.P,SW1,MP*%
%TO.N,N/C*%
X159080000Y-137845000D03*
X159080000Y-126645000D03*
D11*
%TO.P,SW1,C,C*%
%TO.N,Net-(J1-GND-Pad14)*%
X151580000Y-132245000D03*
%TO.P,SW1,B,B*%
%TO.N,Net-(J1-GPIO16{slash}SPI1_~{CE2})*%
X151580000Y-134745000D03*
D13*
%TO.P,SW1,A,A*%
%TO.N,Net-(J1-GPIO12{slash}PWM0)*%
X151580000Y-129745000D03*
%TD*%
D10*
%TO.P,SW2,2,2*%
%TO.N,Net-(J1-GND-Pad14)*%
X155110000Y-90135000D03*
%TO.P,SW2,1,1*%
%TO.N,Net-(J1-GPCLK2{slash}GPIO06)*%
X161460000Y-87595000D03*
%TD*%
D14*
%TO.P,J1,1,3V3*%
%TO.N,Net-(J1-3V3-Pad1)*%
X143500000Y-87400000D03*
D15*
%TO.P,J1,2,5V*%
%TO.N,Net-(J1-5V-Pad2)*%
X140960000Y-87400000D03*
%TO.P,J1,3,SDA_I2C1/GPIO02*%
%TO.N,unconnected-(J1-SDA_I2C1{slash}GPIO02-Pad3)*%
X143500000Y-89940000D03*
%TO.P,J1,4,5V*%
%TO.N,Net-(J1-5V-Pad2)*%
X140960000Y-89940000D03*
%TO.P,J1,5,SCL_I2C1/GPIO03*%
%TO.N,unconnected-(J1-SCL_I2C1{slash}GPIO03-Pad5)*%
X143500000Y-92480000D03*
%TO.P,J1,6,GND*%
%TO.N,Net-(J1-GND-Pad14)*%
X140960000Y-92480000D03*
%TO.P,J1,7,GPCLK0/GPIO04*%
%TO.N,unconnected-(J1-GPCLK0{slash}GPIO04-Pad7)*%
X143500000Y-95020000D03*
%TO.P,J1,8,GPIO14/UART_TXD*%
%TO.N,unconnected-(J1-GPIO14{slash}UART_TXD-Pad8)*%
X140960000Y-95020000D03*
%TO.P,J1,9,GND*%
%TO.N,Net-(J1-GND-Pad14)*%
X143500000Y-97560000D03*
%TO.P,J1,10,GPIO15/UART_RXD*%
%TO.N,unconnected-(J1-GPIO15{slash}UART_RXD-Pad10)*%
X140960000Y-97560000D03*
%TO.P,J1,11,GPIO17/SPI1_~{CE1}*%
%TO.N,unconnected-(J1-GPIO17{slash}SPI1_~{CE1}-Pad11)*%
X143500000Y-100100000D03*
%TO.P,J1,12,GPIO18/SPI1_~{CE0}/PCM_CLK/PWM0*%
%TO.N,unconnected-(J1-GPIO18{slash}SPI1_~{CE0}{slash}PCM_CLK{slash}PWM0-Pad12)*%
X140960000Y-100100000D03*
%TO.P,J1,13,GPIO27/SDIO_DAT3*%
%TO.N,unconnected-(J1-GPIO27{slash}SDIO_DAT3-Pad13)*%
X143500000Y-102640000D03*
%TO.P,J1,14,GND*%
%TO.N,Net-(J1-GND-Pad14)*%
X140960000Y-102640000D03*
%TO.P,J1,15,GPIO22/SDIO_CLK*%
%TO.N,unconnected-(J1-GPIO22{slash}SDIO_CLK-Pad15)*%
X143500000Y-105180000D03*
%TO.P,J1,16,GPIO23/SDIO_CMD*%
%TO.N,unconnected-(J1-GPIO23{slash}SDIO_CMD-Pad16)*%
X140960000Y-105180000D03*
%TO.P,J1,17,3V3*%
%TO.N,Net-(J1-3V3-Pad1)*%
X143500000Y-107720000D03*
%TO.P,J1,18,GPIO24/SDIO_DAT0*%
%TO.N,unconnected-(J1-GPIO24{slash}SDIO_DAT0-Pad18)*%
X140960000Y-107720000D03*
%TO.P,J1,19,MOSI_SPI0/GPIO10*%
%TO.N,unconnected-(J1-MOSI_SPI0{slash}GPIO10-Pad19)*%
X143500000Y-110260000D03*
%TO.P,J1,20,GND*%
%TO.N,Net-(J1-GND-Pad14)*%
X140960000Y-110260000D03*
%TO.P,J1,21,MISO_SPI0/GPIO09*%
%TO.N,unconnected-(J1-MISO_SPI0{slash}GPIO09-Pad21)*%
X143500000Y-112800000D03*
%TO.P,J1,22,GPIO25/SDIO_DAT1*%
%TO.N,unconnected-(J1-GPIO25{slash}SDIO_DAT1-Pad22)*%
X140960000Y-112800000D03*
%TO.P,J1,23,SCLK_SPI0/GPIO11*%
%TO.N,unconnected-(J1-SCLK_SPI0{slash}GPIO11-Pad23)*%
X143500000Y-115340000D03*
%TO.P,J1,24,~{CE0}_SPI0/GPIO08*%
%TO.N,unconnected-(J1-~{CE0}_SPI0{slash}GPIO08-Pad24)*%
X140960000Y-115340000D03*
%TO.P,J1,25,GND*%
%TO.N,Net-(J1-GND-Pad14)*%
X143500000Y-117880000D03*
%TO.P,J1,26,~{CE1}_SPI0/GPIO07*%
%TO.N,unconnected-(J1-~{CE1}_SPI0{slash}GPIO07-Pad26)*%
X140960000Y-117880000D03*
%TO.P,J1,27,ID_SD_I2C0/GPIO00*%
%TO.N,unconnected-(J1-ID_SD_I2C0{slash}GPIO00-Pad27)*%
X143500000Y-120420000D03*
%TO.P,J1,28,ID_SC_I2C0/GPIO01*%
%TO.N,unconnected-(J1-ID_SC_I2C0{slash}GPIO01-Pad28)*%
X140960000Y-120420000D03*
%TO.P,J1,29,GPCLK1/GPIO05*%
%TO.N,Net-(J1-GPCLK1{slash}GPIO05)*%
X143500000Y-122960000D03*
%TO.P,J1,30,GND*%
%TO.N,Net-(J1-GND-Pad14)*%
X140960000Y-122960000D03*
%TO.P,J1,31,GPCLK2/GPIO06*%
%TO.N,Net-(J1-GPCLK2{slash}GPIO06)*%
X143500000Y-125500000D03*
%TO.P,J1,32,GPIO12/PWM0*%
%TO.N,Net-(J1-GPIO12{slash}PWM0)*%
X140960000Y-125500000D03*
%TO.P,J1,33,GPIO13/PWM1*%
%TO.N,unconnected-(J1-GPIO13{slash}PWM1-Pad33)*%
X143500000Y-128040000D03*
%TO.P,J1,34,GND*%
%TO.N,Net-(J1-GND-Pad14)*%
X140960000Y-128040000D03*
%TO.P,J1,35,GPIO19/SPI1_MISO/PCM_FS*%
%TO.N,unconnected-(J1-GPIO19{slash}SPI1_MISO{slash}PCM_FS-Pad35)*%
X143500000Y-130580000D03*
%TO.P,J1,36,GPIO16/SPI1_~{CE2}*%
%TO.N,Net-(J1-GPIO16{slash}SPI1_~{CE2})*%
X140960000Y-130580000D03*
%TO.P,J1,37,GPIO26/SDIO_DAT2*%
%TO.N,Net-(J1-GPIO26{slash}SDIO_DAT2)*%
X143500000Y-133120000D03*
%TO.P,J1,38,GPIO20/SPI1_MOSI/PCM_DIN/PWM1*%
%TO.N,unconnected-(J1-GPIO20{slash}SPI1_MOSI{slash}PCM_DIN{slash}PWM1-Pad38)*%
X140960000Y-133120000D03*
%TO.P,J1,39,GND*%
%TO.N,Net-(J1-GND-Pad14)*%
X143500000Y-135660000D03*
%TO.P,J1,40,GPIO21/SPI1_SCLK/PCM_DOUT*%
%TO.N,unconnected-(J1-GPIO21{slash}SPI1_SCLK{slash}PCM_DOUT-Pad40)*%
X140960000Y-135660000D03*
%TD*%
D16*
%TO.N,Net-(J1-5V-Pad2)*%
X140960000Y-87400000D02*
X140960000Y-89940000D01*
%TO.N,Net-(J1-3V3-Pad1)*%
X156511000Y-89554686D02*
X156511000Y-94709000D01*
X154356314Y-87400000D02*
X156511000Y-89554686D01*
X156511000Y-94709000D02*
X143500000Y-107720000D01*
X143500000Y-87400000D02*
X154356314Y-87400000D01*
%TO.N,Net-(J1-GND-Pad14)*%
X142111000Y-93631000D02*
X140960000Y-92480000D01*
X142111000Y-96171000D02*
X142111000Y-93631000D01*
X143500000Y-97560000D02*
X142111000Y-96171000D01*
X142111000Y-98949000D02*
X143500000Y-97560000D01*
X142111000Y-101489000D02*
X142111000Y-98949000D01*
X140960000Y-102640000D02*
X142111000Y-101489000D01*
X142111000Y-109109000D02*
X142111000Y-103791000D01*
X142111000Y-103791000D02*
X140960000Y-102640000D01*
X140960000Y-110260000D02*
X142111000Y-109109000D01*
X142349000Y-111649000D02*
X140960000Y-110260000D01*
X142349000Y-116729000D02*
X142349000Y-111649000D01*
X143500000Y-117880000D02*
X142349000Y-116729000D01*
X142111000Y-119269000D02*
X143500000Y-117880000D01*
X140960000Y-122960000D02*
X142111000Y-121809000D01*
X142111000Y-121809000D02*
X142111000Y-119269000D01*
X139809000Y-124111000D02*
X140960000Y-122960000D01*
X139809000Y-126889000D02*
X139809000Y-124111000D01*
X140960000Y-128040000D02*
X139809000Y-126889000D01*
X154080000Y-129745000D02*
X151580000Y-132245000D01*
X166080000Y-129745000D02*
X154080000Y-129745000D01*
%TO.N,Net-(J1-GPIO16{slash}SPI1_~{CE2})*%
X139809000Y-131731000D02*
X140960000Y-130580000D01*
X139809000Y-133596760D02*
X139809000Y-131731000D01*
X140712240Y-134500000D02*
X139809000Y-133596760D01*
X141427760Y-134500000D02*
X140712240Y-134500000D01*
X142111000Y-135183240D02*
X141427760Y-134500000D01*
X142111000Y-136136760D02*
X142111000Y-135183240D01*
X142785240Y-136811000D02*
X142111000Y-136136760D01*
X149514000Y-136811000D02*
X142785240Y-136811000D01*
X151580000Y-134745000D02*
X149514000Y-136811000D01*
%TO.N,Net-(J1-GND-Pad14)*%
X148165000Y-135660000D02*
X143500000Y-135660000D01*
X151580000Y-132245000D02*
X148165000Y-135660000D01*
%TO.N,Net-(J1-GPIO12{slash}PWM0)*%
X142111000Y-126651000D02*
X140960000Y-125500000D01*
X142111000Y-133358760D02*
X142111000Y-126651000D01*
X143023240Y-134271000D02*
X142111000Y-133358760D01*
X151580000Y-129745000D02*
X147054000Y-134271000D01*
X147054000Y-134271000D02*
X143023240Y-134271000D01*
%TO.N,Net-(J1-GND-Pad14)*%
X142349000Y-119031000D02*
X143500000Y-117880000D01*
X143023240Y-126651000D02*
X142349000Y-125976760D01*
X143976760Y-126651000D02*
X143023240Y-126651000D01*
X142349000Y-125976760D02*
X142349000Y-119031000D01*
X155190000Y-115437760D02*
X143976760Y-126651000D01*
X155190000Y-109880000D02*
X155190000Y-115437760D01*
%TO.N,Net-(J1-GPIO26{slash}SDIO_DAT2)*%
X161540000Y-115080000D02*
X143500000Y-133120000D01*
X161540000Y-107340000D02*
X161540000Y-115080000D01*
%TO.N,Net-(J1-GND-Pad14)*%
X150925000Y-90135000D02*
X143500000Y-97560000D01*
X155110000Y-90135000D02*
X150925000Y-90135000D01*
%TO.N,Net-(J1-GPCLK2{slash}GPIO06)*%
X144651000Y-124349000D02*
X143500000Y-125500000D01*
X144651000Y-118437686D02*
X144651000Y-124349000D01*
X161460000Y-101628686D02*
X144651000Y-118437686D01*
X161460000Y-87595000D02*
X161460000Y-101628686D01*
%TD*%
M02*
