%TF.GenerationSoftware,KiCad,Pcbnew,9.0.0*%
%TF.CreationDate,2025-06-10T12:24:28+05:30*%
%TF.ProjectId,MP3Player,4d503350-6c61-4796-9572-2e6b69636164,rev?*%
%TF.SameCoordinates,Original*%
%TF.FileFunction,Legend,Top*%
%TF.FilePolarity,Positive*%
%FSLAX46Y46*%
G04 Gerber Fmt 4.6, Leading zero omitted, Abs format (unit mm)*
G04 Created by KiCad (PCBNEW 9.0.0) date 2025-06-10 12:24:28*
%MOMM*%
%LPD*%
G01*
G04 APERTURE LIST*
%ADD10C,0.150000*%
%ADD11C,0.120000*%
G04 APERTURE END LIST*
D10*
X157666667Y-104953200D02*
X157809524Y-105000819D01*
X157809524Y-105000819D02*
X158047619Y-105000819D01*
X158047619Y-105000819D02*
X158142857Y-104953200D01*
X158142857Y-104953200D02*
X158190476Y-104905580D01*
X158190476Y-104905580D02*
X158238095Y-104810342D01*
X158238095Y-104810342D02*
X158238095Y-104715104D01*
X158238095Y-104715104D02*
X158190476Y-104619866D01*
X158190476Y-104619866D02*
X158142857Y-104572247D01*
X158142857Y-104572247D02*
X158047619Y-104524628D01*
X158047619Y-104524628D02*
X157857143Y-104477009D01*
X157857143Y-104477009D02*
X157761905Y-104429390D01*
X157761905Y-104429390D02*
X157714286Y-104381771D01*
X157714286Y-104381771D02*
X157666667Y-104286533D01*
X157666667Y-104286533D02*
X157666667Y-104191295D01*
X157666667Y-104191295D02*
X157714286Y-104096057D01*
X157714286Y-104096057D02*
X157761905Y-104048438D01*
X157761905Y-104048438D02*
X157857143Y-104000819D01*
X157857143Y-104000819D02*
X158095238Y-104000819D01*
X158095238Y-104000819D02*
X158238095Y-104048438D01*
X158571429Y-104000819D02*
X158809524Y-105000819D01*
X158809524Y-105000819D02*
X159000000Y-104286533D01*
X159000000Y-104286533D02*
X159190476Y-105000819D01*
X159190476Y-105000819D02*
X159428572Y-104000819D01*
X159714286Y-104000819D02*
X160333333Y-104000819D01*
X160333333Y-104000819D02*
X160000000Y-104381771D01*
X160000000Y-104381771D02*
X160142857Y-104381771D01*
X160142857Y-104381771D02*
X160238095Y-104429390D01*
X160238095Y-104429390D02*
X160285714Y-104477009D01*
X160285714Y-104477009D02*
X160333333Y-104572247D01*
X160333333Y-104572247D02*
X160333333Y-104810342D01*
X160333333Y-104810342D02*
X160285714Y-104905580D01*
X160285714Y-104905580D02*
X160238095Y-104953200D01*
X160238095Y-104953200D02*
X160142857Y-105000819D01*
X160142857Y-105000819D02*
X159857143Y-105000819D01*
X159857143Y-105000819D02*
X159761905Y-104953200D01*
X159761905Y-104953200D02*
X159714286Y-104905580D01*
X153046667Y-125452200D02*
X153189524Y-125499819D01*
X153189524Y-125499819D02*
X153427619Y-125499819D01*
X153427619Y-125499819D02*
X153522857Y-125452200D01*
X153522857Y-125452200D02*
X153570476Y-125404580D01*
X153570476Y-125404580D02*
X153618095Y-125309342D01*
X153618095Y-125309342D02*
X153618095Y-125214104D01*
X153618095Y-125214104D02*
X153570476Y-125118866D01*
X153570476Y-125118866D02*
X153522857Y-125071247D01*
X153522857Y-125071247D02*
X153427619Y-125023628D01*
X153427619Y-125023628D02*
X153237143Y-124976009D01*
X153237143Y-124976009D02*
X153141905Y-124928390D01*
X153141905Y-124928390D02*
X153094286Y-124880771D01*
X153094286Y-124880771D02*
X153046667Y-124785533D01*
X153046667Y-124785533D02*
X153046667Y-124690295D01*
X153046667Y-124690295D02*
X153094286Y-124595057D01*
X153094286Y-124595057D02*
X153141905Y-124547438D01*
X153141905Y-124547438D02*
X153237143Y-124499819D01*
X153237143Y-124499819D02*
X153475238Y-124499819D01*
X153475238Y-124499819D02*
X153618095Y-124547438D01*
X153951429Y-124499819D02*
X154189524Y-125499819D01*
X154189524Y-125499819D02*
X154380000Y-124785533D01*
X154380000Y-124785533D02*
X154570476Y-125499819D01*
X154570476Y-125499819D02*
X154808572Y-124499819D01*
X155713333Y-125499819D02*
X155141905Y-125499819D01*
X155427619Y-125499819D02*
X155427619Y-124499819D01*
X155427619Y-124499819D02*
X155332381Y-124642676D01*
X155332381Y-124642676D02*
X155237143Y-124737914D01*
X155237143Y-124737914D02*
X155141905Y-124785533D01*
X157586667Y-85208200D02*
X157729524Y-85255819D01*
X157729524Y-85255819D02*
X157967619Y-85255819D01*
X157967619Y-85255819D02*
X158062857Y-85208200D01*
X158062857Y-85208200D02*
X158110476Y-85160580D01*
X158110476Y-85160580D02*
X158158095Y-85065342D01*
X158158095Y-85065342D02*
X158158095Y-84970104D01*
X158158095Y-84970104D02*
X158110476Y-84874866D01*
X158110476Y-84874866D02*
X158062857Y-84827247D01*
X158062857Y-84827247D02*
X157967619Y-84779628D01*
X157967619Y-84779628D02*
X157777143Y-84732009D01*
X157777143Y-84732009D02*
X157681905Y-84684390D01*
X157681905Y-84684390D02*
X157634286Y-84636771D01*
X157634286Y-84636771D02*
X157586667Y-84541533D01*
X157586667Y-84541533D02*
X157586667Y-84446295D01*
X157586667Y-84446295D02*
X157634286Y-84351057D01*
X157634286Y-84351057D02*
X157681905Y-84303438D01*
X157681905Y-84303438D02*
X157777143Y-84255819D01*
X157777143Y-84255819D02*
X158015238Y-84255819D01*
X158015238Y-84255819D02*
X158158095Y-84303438D01*
X158491429Y-84255819D02*
X158729524Y-85255819D01*
X158729524Y-85255819D02*
X158920000Y-84541533D01*
X158920000Y-84541533D02*
X159110476Y-85255819D01*
X159110476Y-85255819D02*
X159348572Y-84255819D01*
X159681905Y-84351057D02*
X159729524Y-84303438D01*
X159729524Y-84303438D02*
X159824762Y-84255819D01*
X159824762Y-84255819D02*
X160062857Y-84255819D01*
X160062857Y-84255819D02*
X160158095Y-84303438D01*
X160158095Y-84303438D02*
X160205714Y-84351057D01*
X160205714Y-84351057D02*
X160253333Y-84446295D01*
X160253333Y-84446295D02*
X160253333Y-84541533D01*
X160253333Y-84541533D02*
X160205714Y-84684390D01*
X160205714Y-84684390D02*
X159634286Y-85255819D01*
X159634286Y-85255819D02*
X160253333Y-85255819D01*
X169738095Y-77254819D02*
X169738095Y-76254819D01*
X169738095Y-76731009D02*
X170309523Y-76731009D01*
X170309523Y-77254819D02*
X170309523Y-76254819D01*
X171309523Y-77254819D02*
X170738095Y-77254819D01*
X171023809Y-77254819D02*
X171023809Y-76254819D01*
X171023809Y-76254819D02*
X170928571Y-76397676D01*
X170928571Y-76397676D02*
X170833333Y-76492914D01*
X170833333Y-76492914D02*
X170738095Y-76540533D01*
X169738095Y-139754819D02*
X169738095Y-138754819D01*
X169738095Y-139231009D02*
X170309523Y-139231009D01*
X170309523Y-139754819D02*
X170309523Y-138754819D01*
X170738095Y-138850057D02*
X170785714Y-138802438D01*
X170785714Y-138802438D02*
X170880952Y-138754819D01*
X170880952Y-138754819D02*
X171119047Y-138754819D01*
X171119047Y-138754819D02*
X171214285Y-138802438D01*
X171214285Y-138802438D02*
X171261904Y-138850057D01*
X171261904Y-138850057D02*
X171309523Y-138945295D01*
X171309523Y-138945295D02*
X171309523Y-139040533D01*
X171309523Y-139040533D02*
X171261904Y-139183390D01*
X171261904Y-139183390D02*
X170690476Y-139754819D01*
X170690476Y-139754819D02*
X171309523Y-139754819D01*
X141896666Y-84084819D02*
X141896666Y-84799104D01*
X141896666Y-84799104D02*
X141849047Y-84941961D01*
X141849047Y-84941961D02*
X141753809Y-85037200D01*
X141753809Y-85037200D02*
X141610952Y-85084819D01*
X141610952Y-85084819D02*
X141515714Y-85084819D01*
X142896666Y-85084819D02*
X142325238Y-85084819D01*
X142610952Y-85084819D02*
X142610952Y-84084819D01*
X142610952Y-84084819D02*
X142515714Y-84227676D01*
X142515714Y-84227676D02*
X142420476Y-84322914D01*
X142420476Y-84322914D02*
X142325238Y-84370533D01*
D11*
%TO.C,SW3*%
X165985000Y-119405000D02*
X152015000Y-119405000D01*
X165985000Y-105435000D02*
X165985000Y-119405000D01*
X152015000Y-119405000D02*
X152015000Y-105435000D01*
X152015000Y-105435000D02*
X165985000Y-105435000D01*
%TO.C,SW1*%
X162080000Y-132245000D02*
G75*
G02*
X156080000Y-132245000I-3000000J0D01*
G01*
X156080000Y-132245000D02*
G75*
G02*
X162080000Y-132245000I3000000J0D01*
G01*
X165180000Y-138145000D02*
X161080000Y-138145000D01*
X165180000Y-135745000D02*
X165180000Y-138145000D01*
X165180000Y-130945000D02*
X165180000Y-133545000D01*
X165180000Y-126345000D02*
X165180000Y-128745000D01*
X161080000Y-126345000D02*
X165180000Y-126345000D01*
X157080000Y-138145000D02*
X152980000Y-138145000D01*
X157080000Y-126345000D02*
X152980000Y-126345000D01*
X152980000Y-126345000D02*
X152980000Y-138145000D01*
X151880000Y-128145000D02*
X151580000Y-128445000D01*
X151580000Y-128445000D02*
X151280000Y-128145000D01*
X151280000Y-128145000D02*
X151880000Y-128145000D01*
%TO.C,SW2*%
X165905000Y-99660000D02*
X151935000Y-99660000D01*
X165905000Y-85690000D02*
X165905000Y-99660000D01*
X151935000Y-99660000D02*
X151935000Y-85690000D01*
X151935000Y-85690000D02*
X165905000Y-85690000D01*
%TO.C,J1*%
X139630000Y-86070000D02*
X139630000Y-136990000D01*
X139630000Y-86070000D02*
X142230000Y-86070000D01*
X139630000Y-136990000D02*
X144830000Y-136990000D01*
X142230000Y-86070000D02*
X142230000Y-88670000D01*
X142230000Y-88670000D02*
X144830000Y-88670000D01*
X143500000Y-86070000D02*
X144830000Y-86070000D01*
X144830000Y-86070000D02*
X144830000Y-87400000D01*
X144830000Y-88670000D02*
X144830000Y-136990000D01*
%TD*%
M02*
