%TF.GenerationSoftware,KiCad,Pcbnew,9.0.0*%
%TF.CreationDate,2025-06-13T23:26:38+05:30*%
%TF.ProjectId,MP3Player,4d503350-6c61-4796-9572-2e6b69636164,rev?*%
%TF.SameCoordinates,Original*%
%TF.FileFunction,Copper,L1,Top*%
%TF.FilePolarity,Positive*%
%FSLAX46Y46*%
G04 Gerber Fmt 4.6, Leading zero omitted, Abs format (unit mm)*
G04 Created by KiCad (PCBNEW 9.0.0) date 2025-06-13 23:26:38*
%MOMM*%
%LPD*%
G01*
G04 APERTURE LIST*
%TA.AperFunction,ComponentPad*%
%ADD10R,1.700000X1.700000*%
%TD*%
%TA.AperFunction,ComponentPad*%
%ADD11O,1.700000X1.700000*%
%TD*%
%TA.AperFunction,ComponentPad*%
%ADD12R,2.000000X2.000000*%
%TD*%
%TA.AperFunction,ComponentPad*%
%ADD13C,2.000000*%
%TD*%
%TA.AperFunction,ComponentPad*%
%ADD14R,3.200000X2.000000*%
%TD*%
%TA.AperFunction,ComponentPad*%
%ADD15C,2.200000*%
%TD*%
%TA.AperFunction,Conductor*%
%ADD16C,0.200000*%
%TD*%
G04 APERTURE END LIST*
D10*
%TO.P,J1,1,Pin_1*%
%TO.N,Net-(J1-Pin_1)*%
X150000000Y-104420000D03*
D11*
%TO.P,J1,2,Pin_2*%
%TO.N,Net-(J1-Pin_2)*%
X150000000Y-106960000D03*
%TO.P,J1,3,Pin_3*%
%TO.N,Net-(J1-Pin_3)*%
X150000000Y-109500000D03*
%TO.P,J1,4,Pin_4*%
%TO.N,Net-(J1-Pin_4)*%
X150000000Y-112040000D03*
%TO.P,J1,5,Pin_5*%
%TO.N,Net-(J1-Pin_5)*%
X150000000Y-114580000D03*
%TO.P,J1,6,Pin_6*%
%TO.N,Net-(J1-Pin_6)*%
X150000000Y-117120000D03*
%TD*%
D12*
%TO.P,SW1,A,A*%
%TO.N,Net-(J1-Pin_4)*%
X154580000Y-129825000D03*
D13*
%TO.P,SW1,B,B*%
%TO.N,Net-(J1-Pin_5)*%
X154580000Y-134825000D03*
%TO.P,SW1,C,C*%
%TO.N,Net-(J1-Pin_6)*%
X154580000Y-132325000D03*
D14*
%TO.P,SW1,MP*%
%TO.N,N/C*%
X162080000Y-126725000D03*
X162080000Y-137925000D03*
D13*
%TO.P,SW1,S1,S1*%
%TO.N,Net-(J1-Pin_1)*%
X169080000Y-134825000D03*
%TO.P,SW1,S2,S2*%
%TO.N,Net-(J1-Pin_6)*%
X169080000Y-129825000D03*
%TD*%
D15*
%TO.P,SW2,2,2*%
%TO.N,Net-(J1-Pin_6)*%
X158110000Y-90215000D03*
%TO.P,SW2,1,1*%
%TO.N,Net-(J1-Pin_2)*%
X164460000Y-87675000D03*
%TD*%
%TO.P,SW3,1,1*%
%TO.N,Net-(J1-Pin_3)*%
X164540000Y-107420000D03*
%TO.P,SW3,2,2*%
%TO.N,Net-(J1-Pin_6)*%
X158190000Y-109960000D03*
%TD*%
D16*
%TO.N,Net-(J1-Pin_2)*%
X151151000Y-109976760D02*
X151151000Y-108111000D01*
X151151000Y-108111000D02*
X150000000Y-106960000D01*
X150476760Y-110651000D02*
X151151000Y-109976760D01*
X148448000Y-109575760D02*
X149523240Y-110651000D01*
X148448000Y-96761486D02*
X148448000Y-109575760D01*
X149523240Y-110651000D02*
X150476760Y-110651000D01*
X157534486Y-87675000D02*
X148448000Y-96761486D01*
X164460000Y-87675000D02*
X157534486Y-87675000D01*
%TO.N,Net-(J1-Pin_3)*%
X157363586Y-88413000D02*
X148849000Y-96927586D01*
X160902816Y-88413000D02*
X157363586Y-88413000D01*
X148849000Y-96927586D02*
X148849000Y-108349000D01*
X164540000Y-92050184D02*
X160902816Y-88413000D01*
X164540000Y-107420000D02*
X164540000Y-92050184D01*
X148849000Y-108349000D02*
X150000000Y-109500000D01*
%TO.N,Net-(J1-Pin_1)*%
X157529686Y-88814000D02*
X150000000Y-96343686D01*
X158690314Y-88814000D02*
X157529686Y-88814000D01*
X159511000Y-89634686D02*
X158690314Y-88814000D01*
X150000000Y-96343686D02*
X150000000Y-104420000D01*
X159511000Y-109299686D02*
X159511000Y-89634686D01*
X159591000Y-109379686D02*
X159511000Y-109299686D01*
X159591000Y-113472530D02*
X159591000Y-109379686D01*
X170381000Y-124262530D02*
X159591000Y-113472530D01*
X169080000Y-134825000D02*
X170381000Y-133524000D01*
X170381000Y-133524000D02*
X170381000Y-124262530D01*
%TO.N,Net-(J1-Pin_6)*%
X153279000Y-131024000D02*
X154580000Y-132325000D01*
X153279000Y-128524000D02*
X153279000Y-131024000D01*
X169080000Y-129825000D02*
X167779000Y-128524000D01*
X167779000Y-128524000D02*
X153279000Y-128524000D01*
%TO.N,Net-(J1-Pin_4)*%
X148448000Y-130532892D02*
X148448000Y-113592000D01*
X148448000Y-113592000D02*
X150000000Y-112040000D01*
X159281000Y-131744687D02*
X159281000Y-132905313D01*
X159281000Y-132905313D02*
X156060313Y-136126000D01*
X157361313Y-129825000D02*
X159281000Y-131744687D01*
X156060313Y-136126000D02*
X154041108Y-136126000D01*
X154041108Y-136126000D02*
X148448000Y-130532892D01*
X154580000Y-129825000D02*
X157361313Y-129825000D01*
%TO.N,Net-(J1-Pin_6)*%
X150000000Y-127745000D02*
X150000000Y-117120000D01*
X154580000Y-132325000D02*
X150000000Y-127745000D01*
%TO.N,Net-(J1-Pin_5)*%
X148849000Y-129094000D02*
X154580000Y-134825000D01*
X150000000Y-114580000D02*
X148849000Y-115731000D01*
X148849000Y-115731000D02*
X148849000Y-129094000D01*
%TO.N,Net-(J1-Pin_6)*%
X157160000Y-109960000D02*
X150000000Y-117120000D01*
X158190000Y-109960000D02*
X157160000Y-109960000D01*
X158190000Y-90295000D02*
X158190000Y-109960000D01*
X158110000Y-90215000D02*
X158190000Y-90295000D01*
%TD*%
M02*
