%TF.GenerationSoftware,KiCad,Pcbnew,9.0.0*%
%TF.CreationDate,2025-06-13T23:26:38+05:30*%
%TF.ProjectId,MP3Player,4d503350-6c61-4796-9572-2e6b69636164,rev?*%
%TF.SameCoordinates,Original*%
%TF.FileFunction,Legend,Top*%
%TF.FilePolarity,Positive*%
%FSLAX46Y46*%
G04 Gerber Fmt 4.6, Leading zero omitted, Abs format (unit mm)*
G04 Created by KiCad (PCBNEW 9.0.0) date 2025-06-13 23:26:38*
%MOMM*%
%LPD*%
G01*
G04 APERTURE LIST*
%ADD10C,0.150000*%
%ADD11C,0.120000*%
G04 APERTURE END LIST*
D10*
X171238095Y-75754819D02*
X171238095Y-74754819D01*
X171238095Y-75231009D02*
X171809523Y-75231009D01*
X171809523Y-75754819D02*
X171809523Y-74754819D01*
X172809523Y-75754819D02*
X172238095Y-75754819D01*
X172523809Y-75754819D02*
X172523809Y-74754819D01*
X172523809Y-74754819D02*
X172428571Y-74897676D01*
X172428571Y-74897676D02*
X172333333Y-74992914D01*
X172333333Y-74992914D02*
X172238095Y-75040533D01*
X171238095Y-142254819D02*
X171238095Y-141254819D01*
X171238095Y-141731009D02*
X171809523Y-141731009D01*
X171809523Y-142254819D02*
X171809523Y-141254819D01*
X172238095Y-141350057D02*
X172285714Y-141302438D01*
X172285714Y-141302438D02*
X172380952Y-141254819D01*
X172380952Y-141254819D02*
X172619047Y-141254819D01*
X172619047Y-141254819D02*
X172714285Y-141302438D01*
X172714285Y-141302438D02*
X172761904Y-141350057D01*
X172761904Y-141350057D02*
X172809523Y-141445295D01*
X172809523Y-141445295D02*
X172809523Y-141540533D01*
X172809523Y-141540533D02*
X172761904Y-141683390D01*
X172761904Y-141683390D02*
X172190476Y-142254819D01*
X172190476Y-142254819D02*
X172809523Y-142254819D01*
X156046667Y-125532200D02*
X156189524Y-125579819D01*
X156189524Y-125579819D02*
X156427619Y-125579819D01*
X156427619Y-125579819D02*
X156522857Y-125532200D01*
X156522857Y-125532200D02*
X156570476Y-125484580D01*
X156570476Y-125484580D02*
X156618095Y-125389342D01*
X156618095Y-125389342D02*
X156618095Y-125294104D01*
X156618095Y-125294104D02*
X156570476Y-125198866D01*
X156570476Y-125198866D02*
X156522857Y-125151247D01*
X156522857Y-125151247D02*
X156427619Y-125103628D01*
X156427619Y-125103628D02*
X156237143Y-125056009D01*
X156237143Y-125056009D02*
X156141905Y-125008390D01*
X156141905Y-125008390D02*
X156094286Y-124960771D01*
X156094286Y-124960771D02*
X156046667Y-124865533D01*
X156046667Y-124865533D02*
X156046667Y-124770295D01*
X156046667Y-124770295D02*
X156094286Y-124675057D01*
X156094286Y-124675057D02*
X156141905Y-124627438D01*
X156141905Y-124627438D02*
X156237143Y-124579819D01*
X156237143Y-124579819D02*
X156475238Y-124579819D01*
X156475238Y-124579819D02*
X156618095Y-124627438D01*
X156951429Y-124579819D02*
X157189524Y-125579819D01*
X157189524Y-125579819D02*
X157380000Y-124865533D01*
X157380000Y-124865533D02*
X157570476Y-125579819D01*
X157570476Y-125579819D02*
X157808572Y-124579819D01*
X158713333Y-125579819D02*
X158141905Y-125579819D01*
X158427619Y-125579819D02*
X158427619Y-124579819D01*
X158427619Y-124579819D02*
X158332381Y-124722676D01*
X158332381Y-124722676D02*
X158237143Y-124817914D01*
X158237143Y-124817914D02*
X158141905Y-124865533D01*
X160586667Y-85288200D02*
X160729524Y-85335819D01*
X160729524Y-85335819D02*
X160967619Y-85335819D01*
X160967619Y-85335819D02*
X161062857Y-85288200D01*
X161062857Y-85288200D02*
X161110476Y-85240580D01*
X161110476Y-85240580D02*
X161158095Y-85145342D01*
X161158095Y-85145342D02*
X161158095Y-85050104D01*
X161158095Y-85050104D02*
X161110476Y-84954866D01*
X161110476Y-84954866D02*
X161062857Y-84907247D01*
X161062857Y-84907247D02*
X160967619Y-84859628D01*
X160967619Y-84859628D02*
X160777143Y-84812009D01*
X160777143Y-84812009D02*
X160681905Y-84764390D01*
X160681905Y-84764390D02*
X160634286Y-84716771D01*
X160634286Y-84716771D02*
X160586667Y-84621533D01*
X160586667Y-84621533D02*
X160586667Y-84526295D01*
X160586667Y-84526295D02*
X160634286Y-84431057D01*
X160634286Y-84431057D02*
X160681905Y-84383438D01*
X160681905Y-84383438D02*
X160777143Y-84335819D01*
X160777143Y-84335819D02*
X161015238Y-84335819D01*
X161015238Y-84335819D02*
X161158095Y-84383438D01*
X161491429Y-84335819D02*
X161729524Y-85335819D01*
X161729524Y-85335819D02*
X161920000Y-84621533D01*
X161920000Y-84621533D02*
X162110476Y-85335819D01*
X162110476Y-85335819D02*
X162348572Y-84335819D01*
X162681905Y-84431057D02*
X162729524Y-84383438D01*
X162729524Y-84383438D02*
X162824762Y-84335819D01*
X162824762Y-84335819D02*
X163062857Y-84335819D01*
X163062857Y-84335819D02*
X163158095Y-84383438D01*
X163158095Y-84383438D02*
X163205714Y-84431057D01*
X163205714Y-84431057D02*
X163253333Y-84526295D01*
X163253333Y-84526295D02*
X163253333Y-84621533D01*
X163253333Y-84621533D02*
X163205714Y-84764390D01*
X163205714Y-84764390D02*
X162634286Y-85335819D01*
X162634286Y-85335819D02*
X163253333Y-85335819D01*
X160666667Y-105033200D02*
X160809524Y-105080819D01*
X160809524Y-105080819D02*
X161047619Y-105080819D01*
X161047619Y-105080819D02*
X161142857Y-105033200D01*
X161142857Y-105033200D02*
X161190476Y-104985580D01*
X161190476Y-104985580D02*
X161238095Y-104890342D01*
X161238095Y-104890342D02*
X161238095Y-104795104D01*
X161238095Y-104795104D02*
X161190476Y-104699866D01*
X161190476Y-104699866D02*
X161142857Y-104652247D01*
X161142857Y-104652247D02*
X161047619Y-104604628D01*
X161047619Y-104604628D02*
X160857143Y-104557009D01*
X160857143Y-104557009D02*
X160761905Y-104509390D01*
X160761905Y-104509390D02*
X160714286Y-104461771D01*
X160714286Y-104461771D02*
X160666667Y-104366533D01*
X160666667Y-104366533D02*
X160666667Y-104271295D01*
X160666667Y-104271295D02*
X160714286Y-104176057D01*
X160714286Y-104176057D02*
X160761905Y-104128438D01*
X160761905Y-104128438D02*
X160857143Y-104080819D01*
X160857143Y-104080819D02*
X161095238Y-104080819D01*
X161095238Y-104080819D02*
X161238095Y-104128438D01*
X161571429Y-104080819D02*
X161809524Y-105080819D01*
X161809524Y-105080819D02*
X162000000Y-104366533D01*
X162000000Y-104366533D02*
X162190476Y-105080819D01*
X162190476Y-105080819D02*
X162428572Y-104080819D01*
X162714286Y-104080819D02*
X163333333Y-104080819D01*
X163333333Y-104080819D02*
X163000000Y-104461771D01*
X163000000Y-104461771D02*
X163142857Y-104461771D01*
X163142857Y-104461771D02*
X163238095Y-104509390D01*
X163238095Y-104509390D02*
X163285714Y-104557009D01*
X163285714Y-104557009D02*
X163333333Y-104652247D01*
X163333333Y-104652247D02*
X163333333Y-104890342D01*
X163333333Y-104890342D02*
X163285714Y-104985580D01*
X163285714Y-104985580D02*
X163238095Y-105033200D01*
X163238095Y-105033200D02*
X163142857Y-105080819D01*
X163142857Y-105080819D02*
X162857143Y-105080819D01*
X162857143Y-105080819D02*
X162761905Y-105033200D01*
X162761905Y-105033200D02*
X162714286Y-104985580D01*
D11*
%TO.C,SW1*%
X154280000Y-128225000D02*
X154880000Y-128225000D01*
X154580000Y-128525000D02*
X154280000Y-128225000D01*
X154880000Y-128225000D02*
X154580000Y-128525000D01*
X155980000Y-126425000D02*
X155980000Y-138225000D01*
X160080000Y-126425000D02*
X155980000Y-126425000D01*
X160080000Y-138225000D02*
X155980000Y-138225000D01*
X164080000Y-126425000D02*
X168180000Y-126425000D01*
X168180000Y-126425000D02*
X168180000Y-128825000D01*
X168180000Y-131025000D02*
X168180000Y-133625000D01*
X168180000Y-135825000D02*
X168180000Y-138225000D01*
X168180000Y-138225000D02*
X164080000Y-138225000D01*
X165080000Y-132325000D02*
G75*
G02*
X159080000Y-132325000I-3000000J0D01*
G01*
X159080000Y-132325000D02*
G75*
G02*
X165080000Y-132325000I3000000J0D01*
G01*
%TO.C,SW2*%
X168905000Y-99740000D02*
X154935000Y-99740000D01*
X168905000Y-85770000D02*
X168905000Y-99740000D01*
X154935000Y-99740000D02*
X154935000Y-85770000D01*
X154935000Y-85770000D02*
X168905000Y-85770000D01*
%TO.C,SW3*%
X155015000Y-105515000D02*
X168985000Y-105515000D01*
X155015000Y-119485000D02*
X155015000Y-105515000D01*
X168985000Y-105515000D02*
X168985000Y-119485000D01*
X168985000Y-119485000D02*
X155015000Y-119485000D01*
%TD*%
M02*
